<?xml version="1.0" encoding="utf-8"?>
<!-- Generator: Adobe Illustrator 22.1.0, SVG Export Plug-In . SVG Version: 6.00 Build 0)  -->
<svg version="1.1" id="Artwork" xmlns="http://www.w3.org/2000/svg" xmlns:xlink="http://www.w3.org/1999/xlink" x="0px" y="0px"
	 viewBox="0 0 24 24" enable-background="new 0 0 24 24" xml:space="preserve">
<radialGradient id="SVGID_1_" cx="12" cy="12" r="12" gradientUnits="userSpaceOnUse">
	<stop  offset="0" style="stop-color:#0073AA"/>
	<stop  offset="1" style="stop-color:#00A0D2"/>
</radialGradient>
<rect fill="url(#SVGID_1_)" width="24" height="24"/>
<g>
	<path fill="#006799" d="M6.1,20H2V4h4v1.9H4.2v12.2h1.9V20z"/>
	<path fill="#006799" d="M17.9,18.1h1.9V5.9h-1.9V4h4v16h-4V18.1z"/>
</g>
<g>
	<path fill="#66C6E4" d="M15.8,12.1L15.4,14h2.1v1.7h-2.5l-0.6,3.4h-1.8l0.7-3.4h-1.6L11,19.1H9.2l0.6-3.4h-2V14h2.3l0.4-1.9H8.5
		v-1.7h2.4l0.6-3.4h1.8l-0.6,3.4h1.6L15,6.9h1.8l-0.6,3.4h2v1.7H15.8z M12,14h1.6l0.4-1.9h-1.6L12,14z"/>
</g>
<path fill="#BFE7F3" d="M14.8,11.1L14.4,13h2.1v1.7h-2.5l-0.6,3.4h-1.8l0.7-3.4h-1.6L10,18.1H8.2l0.6-3.4h-2V13h2.3l0.4-1.9H7.5V9.3
	h2.4l0.6-3.4h1.8l-0.6,3.4h1.6L14,5.9h1.8l-0.6,3.4h2v1.7H14.8z M11,13h1.6l0.4-1.9h-1.6L11,13z"/>
<path fill="#FFFFFF" d="M13.8,10.1L13.4,12h2.1v1.7h-2.5l-0.6,3.4h-1.8l0.7-3.4H9.7L9,17.1H7.2l0.6-3.4h-2V12h2.3l0.4-1.9H6.5V8.3
	h2.4l0.6-3.4h1.8l-0.6,3.4h1.6L13,4.9h1.8l-0.6,3.4h2v1.7H13.8z M10,12h1.6l0.4-1.9h-1.6L10,12z"/>
</svg>
